<?xml version="1.0" encoding="UTF-8" standalone="no"?>
<svg width="96px" height="96px" viewBox="0 0 96 96" version="1.1" xmlns="http://www.w3.org/2000/svg" xmlns:xlink="http://www.w3.org/1999/xlink" xmlns:sketch="http://www.bohemiancoding.com/sketch/ns">
    <!-- Generator: Sketch 3.3.3 (12081) - http://www.bohemiancoding.com/sketch -->
    <title>github</title>
    <desc>Created with Sketch.</desc>
    <defs></defs>
    <g id="Page-1" stroke="none" stroke-width="1" fill="none" fill-rule="evenodd" sketch:type="MSPage">
        <g id="github" sketch:type="MSLayerGroup">
            <circle id="Oval" fill="#6FC057" sketch:type="MSShapeGroup" cx="48" cy="48" r="48"></circle>
            <path d="M48,23.5 C34.469,23.5 23.5,34.469 23.5,48 C23.5,61.531 34.469,72.5 48,72.5 C61.531,72.5 72.5,61.531 72.5,48 C72.5,34.469 61.531,23.5 48,23.5 L48,23.5 Z M62.5495,62.5495 C60.6585,64.4405 58.4575,65.9245 56.008,66.961 C55.3855,67.224 54.7535,67.4555 54.113,67.6545 L54.113,63.9825 C54.113,62.0525 53.451,60.633 52.127,59.724 C52.9565,59.644 53.718,59.5325 54.412,59.389 C55.106,59.2455 55.8395,59.038 56.613,58.7665 C57.3865,58.495 58.0805,58.172 58.6945,57.7975 C59.3085,57.4225 59.899,56.936 60.465,56.338 C61.031,55.74 61.506,55.062 61.8885,54.3045 C62.271,53.547 62.5745,52.6375 62.7975,51.577 C63.0205,50.5165 63.1325,49.348 63.1325,48.072 C63.1325,45.5995 62.327,43.4945 60.716,41.7555 C61.4495,39.8415 61.37,37.76 60.477,35.511 L59.8785,35.4395 C59.464,35.3915 58.718,35.567 57.6415,35.966 C56.565,36.365 55.3565,37.0185 54.017,37.928 C52.1185,37.4015 50.149,37.1385 48.107,37.1385 C46.0495,37.1385 44.0875,37.4015 42.221,37.928 C41.376,37.3535 40.574,36.8795 39.8165,36.5045 C39.059,36.1295 38.453,35.8745 37.998,35.7385 C37.5435,35.603 37.121,35.519 36.73,35.487 C36.339,35.455 36.088,35.4475 35.9765,35.463 C35.865,35.4785 35.785,35.495 35.7375,35.511 C34.844,37.776 34.7645,39.858 35.4985,41.7555 C33.8875,43.494 33.082,45.5995 33.082,48.072 C33.082,49.348 33.1935,50.5165 33.417,51.577 C33.6405,52.6375 33.9435,53.547 34.326,54.3045 C34.7085,55.062 35.1835,55.74 35.7495,56.338 C36.3155,56.936 36.906,57.4225 37.52,57.7975 C38.134,58.173 38.828,58.4955 39.6015,58.7665 C40.375,59.038 41.1085,59.245 41.8025,59.389 C42.4965,59.5325 43.258,59.6445 44.0875,59.724 C42.7795,60.6175 42.1255,62.037 42.1255,63.9825 L42.1255,67.726 C41.403,67.511 40.691,67.257 39.9915,66.961 C37.542,65.9245 35.341,64.4405 33.45,62.5495 C31.559,60.6585 30.075,58.4575 29.0385,56.008 C27.967,53.474 27.4235,50.78 27.4235,48 C27.4235,45.22 27.967,42.526 29.039,39.992 C30.0755,37.5425 31.5595,35.3415 33.4505,33.4505 C35.3415,31.5595 37.5425,30.0755 39.992,29.039 C42.526,27.967 45.22,27.4235 48,27.4235 C50.78,27.4235 53.474,27.967 56.008,29.039 C58.458,30.0755 60.6585,31.5595 62.5495,33.4505 C64.4405,35.3415 65.9245,37.5425 66.961,39.992 C68.0325,42.5265 68.576,45.2205 68.576,48 C68.576,50.7795 68.0325,53.474 66.9605,56.008 C65.924,58.4575 64.44,60.6585 62.5495,62.5495 L62.5495,62.5495 L62.5495,62.5495 Z" id="Shape" fill="#F7F7F7" sketch:type="MSShapeGroup"></path>
        </g>
    </g>
</svg>