<?xml version="1.0" encoding="UTF-8" standalone="no"?>
<svg width="96px" height="96px" viewBox="0 0 96 96" version="1.1" xmlns="http://www.w3.org/2000/svg" xmlns:xlink="http://www.w3.org/1999/xlink" xmlns:sketch="http://www.bohemiancoding.com/sketch/ns">
    <!-- Generator: Sketch 3.3.3 (12081) - http://www.bohemiancoding.com/sketch -->
    <title>twitter</title>
    <desc>Created with Sketch.</desc>
    <defs></defs>
    <g id="Page-1" stroke="none" stroke-width="1" fill="none" fill-rule="evenodd" sketch:type="MSPage">
        <g id="twitter" sketch:type="MSLayerGroup">
            <circle id="Oval" fill="#6FC057" sketch:type="MSShapeGroup" cx="48" cy="48" r="48"></circle>
            <path d="M72.5005,32.714 C70.6975,33.518 68.7605,34.0615 66.727,34.306 C68.802,33.0545 70.396,31.073 71.1475,28.7115 C69.205,29.8705 67.054,30.7115 64.7635,31.1655 C62.93,29.2 60.317,27.972 57.4255,27.972 C51.8735,27.972 47.372,32.499 47.372,38.0835 C47.372,38.876 47.4605,39.6475 47.632,40.388 C39.277,39.9655 31.8695,35.9405 26.911,29.8225 C26.046,31.3165 25.55,33.0535 25.55,34.9065 C25.55,38.415 27.325,41.5105 30.0225,43.3235 C28.3745,43.2715 26.824,42.8165 25.4695,42.059 C25.4685,42.1015 25.4685,42.144 25.4685,42.1865 C25.4685,47.086 28.934,51.1725 33.533,52.102 C32.689,52.3335 31.8015,52.457 30.8845,52.457 C30.2365,52.457 29.607,52.3935 28.993,52.2755 C30.2725,56.2925 33.985,59.2165 38.384,59.298 C34.9435,62.01 30.6085,63.6265 25.8985,63.6265 C25.087,63.6265 24.287,63.5785 23.5005,63.4855 C27.9495,66.3545 33.234,68.029 38.9105,68.029 C57.4015,68.029 67.5135,52.6205 67.5135,39.2575 C67.5135,38.819 67.5035,38.3835 67.484,37.949 C69.448,36.5225 71.1525,34.741 72.5005,32.714 L72.5005,32.714 Z" id="Shape" fill="#F7F7F7" sketch:type="MSShapeGroup"></path>
        </g>
    </g>
</svg>